<?xml version="1.0" encoding="UTF-8"?>
<svg xmlns="http://www.w3.org/2000/svg" xmlns:xlink="http://www.w3.org/1999/xlink" width="128pt" height="128pt" viewBox="0 0 128 128" version="1.1">
<g id="surface1">
<path style=" stroke:none;fill-rule:nonzero;fill:rgb(99.215686%,71.372549%,18.431373%);fill-opacity:1;" d="M 0 114.382812 C 0.00390625 113.175781 0.3125 111.992188 0.90625 110.941406 L 57.929688 10.285156 C 59.203125 8.019531 61.601562 6.617188 64.199219 6.621094 C 66.800781 6.628906 69.199219 8.023438 70.488281 10.285156 L 127.09375 110.960938 C 127.6875 112.003906 128.003906 113.183594 128 114.382812 C 128 118.246094 124.867188 121.378906 121.003906 121.378906 L 6.996094 121.378906 C 3.132812 121.378906 0 118.246094 0 114.382812 Z M 0 114.382812 "/>
<path style=" stroke:none;fill-rule:nonzero;fill:rgb(100%,63.529412%,18.823529%);fill-opacity:1;" d="M 127.09375 110.960938 L 91.253906 47.226562 C 79.429688 78.910156 56.539062 105.25 26.8125 121.378906 L 121.003906 121.378906 C 124.867188 121.378906 128 118.246094 128 114.382812 C 128.003906 113.183594 127.6875 112.003906 127.09375 110.960938 Z M 127.09375 110.960938 "/>
<path style=" stroke:none;fill-rule:nonzero;fill:rgb(87.058824%,29.803922%,23.529412%);fill-opacity:1;" d="M 48.550781 88.277344 L 44.136719 88.277344 L 44.136719 94.898438 L 40.277344 94.898438 L 44.136719 77.726562 L 39.722656 76.753906 L 35.308594 96.617188 C 35.164062 97.277344 35.324219 97.96875 35.753906 98.492188 C 36.183594 99.023438 36.832031 99.324219 37.515625 99.308594 L 44.136719 99.308594 L 44.136719 103.722656 L 48.550781 103.722656 L 48.550781 99.308594 L 50.757812 99.308594 L 50.757812 94.894531 L 48.550781 94.894531 Z M 48.550781 88.277344 "/>
<path style=" stroke:none;fill-rule:nonzero;fill:rgb(87.058824%,29.803922%,23.529412%);fill-opacity:1;" d="M 64 77.242188 C 59.125 77.242188 55.171875 81.195312 55.171875 86.070312 L 55.171875 94.898438 C 55.171875 99.773438 59.125 103.722656 64 103.722656 C 68.875 103.722656 72.828125 99.773438 72.828125 94.898438 L 72.828125 86.070312 C 72.828125 81.195312 68.875 77.242188 64 77.242188 Z M 68.414062 94.898438 C 68.414062 97.335938 66.4375 99.308594 64 99.308594 C 61.5625 99.308594 59.585938 97.335938 59.585938 94.898438 L 59.585938 86.070312 C 59.585938 83.628906 61.5625 81.65625 64 81.65625 C 66.4375 81.65625 68.414062 83.628906 68.414062 86.070312 Z M 68.414062 94.898438 "/>
<path style=" stroke:none;fill-rule:nonzero;fill:rgb(87.058824%,29.803922%,23.529412%);fill-opacity:1;" d="M 92.691406 94.898438 L 90.484375 94.898438 L 90.484375 88.277344 L 86.070312 88.277344 L 86.070312 94.898438 L 82.207031 94.898438 L 86.070312 77.726562 L 81.65625 76.753906 L 77.242188 96.617188 C 77.09375 97.277344 77.257812 97.96875 77.683594 98.492188 C 78.113281 99.023438 78.765625 99.324219 79.449219 99.308594 L 86.070312 99.308594 L 86.070312 103.722656 L 90.484375 103.722656 L 90.484375 99.308594 L 92.691406 99.308594 Z M 92.691406 94.898438 "/>
<path style=" stroke:none;fill-rule:nonzero;fill:rgb(87.058824%,29.803922%,23.529412%);fill-opacity:1;" d="M 61.792969 35.308594 L 66.207031 35.308594 L 66.207031 57.378906 L 61.792969 57.378906 Z M 61.792969 35.308594 "/>
<path style=" stroke:none;fill-rule:nonzero;fill:rgb(87.058824%,29.803922%,23.529412%);fill-opacity:1;" d="M 61.792969 61.792969 L 66.207031 61.792969 L 66.207031 66.207031 L 61.792969 66.207031 Z M 61.792969 61.792969 "/>
</g>
</svg>
