<?xml version="1.0" encoding="UTF-8"?>
<svg xmlns="http://www.w3.org/2000/svg" xmlns:xlink="http://www.w3.org/1999/xlink" width="128pt" height="128pt" viewBox="0 0 128 128" version="1.1">
<g id="surface1">
<path style=" stroke:none;fill-rule:nonzero;fill:rgb(71.372549%,76.862745%,81.176471%);fill-opacity:1;" d="M 93.90625 67.777344 C 91.054688 67.777344 88.746094 65.46875 88.746094 62.617188 L 88.746094 35.066406 C 88.746094 21.421875 77.644531 10.324219 64 10.324219 C 50.355469 10.324219 39.253906 21.421875 39.253906 35.066406 L 39.253906 62.617188 C 39.253906 65.46875 36.945312 67.777344 34.09375 67.777344 C 31.242188 67.777344 28.933594 65.46875 28.933594 62.617188 L 28.933594 35.066406 C 28.933594 15.730469 44.664062 0 64 0 C 83.335938 0 99.066406 15.730469 99.066406 35.066406 L 99.066406 62.617188 C 99.066406 65.46875 96.757812 67.777344 93.90625 67.777344 Z M 93.90625 67.777344 "/>
<path style=" stroke:none;fill-rule:nonzero;fill:rgb(62.352941%,67.45098%,72.941176%);fill-opacity:1;" d="M 64 0 C 62.253906 0 60.535156 0.128906 58.855469 0.378906 C 75.757812 2.875 88.773438 17.480469 88.773438 35.066406 L 88.773438 62.617188 C 88.773438 62.71875 88.765625 62.816406 88.757812 62.914062 C 88.914062 65.625 91.15625 67.777344 93.90625 67.777344 C 96.757812 67.777344 99.066406 65.46875 99.066406 62.617188 L 99.066406 35.066406 C 99.066406 15.730469 83.335938 0 64 0 Z M 64 0 "/>
<path style=" stroke:none;fill-rule:nonzero;fill:rgb(99.607843%,69.411765%,21.568627%);fill-opacity:1;" d="M 105.597656 128 L 22.402344 128 C 17.597656 128 13.703125 124.105469 13.703125 119.300781 L 13.703125 57.640625 C 13.703125 52.835938 17.597656 48.941406 22.402344 48.941406 L 105.597656 48.941406 C 110.402344 48.941406 114.296875 52.835938 114.296875 57.640625 L 114.296875 119.300781 C 114.296875 124.105469 110.402344 128 105.597656 128 Z M 105.597656 128 "/>
<path style=" stroke:none;fill-rule:nonzero;fill:rgb(27.45098%,35.294118%,38.039216%);fill-opacity:1;" d="M 77.191406 81.59375 C 77.191406 74.308594 71.285156 68.402344 64 68.402344 C 56.714844 68.402344 50.808594 74.308594 50.808594 81.59375 C 50.808594 86.464844 53.453125 90.71875 57.382812 93.003906 L 57.382812 108.214844 C 57.382812 111.867188 60.347656 114.832031 64 114.832031 C 67.652344 114.832031 70.617188 111.867188 70.617188 108.214844 L 70.617188 93.003906 C 74.546875 90.71875 77.191406 86.464844 77.191406 81.59375 Z M 77.191406 81.59375 "/>
<path style=" stroke:none;fill-rule:nonzero;fill:rgb(96.470588%,67.058824%,19.215686%);fill-opacity:1;" d="M 105.597656 48.941406 L 95.304688 48.941406 C 100.109375 48.941406 104.003906 52.835938 104.003906 57.640625 L 104.003906 119.300781 C 104.003906 124.105469 100.109375 128 95.304688 128 L 105.597656 128 C 110.402344 128 114.296875 124.105469 114.296875 119.300781 L 114.296875 57.640625 C 114.296875 52.835938 110.402344 48.941406 105.597656 48.941406 Z M 105.597656 48.941406 "/>
</g>
</svg>
